<?xml version="1.0" standalone="no"?>
<!DOCTYPE svg PUBLIC "-//W3C//DTD SVG 20010904//EN"
 "http://www.w3.org/TR/2001/REC-SVG-20010904/DTD/svg10.dtd">
<svg version="1.0" xmlns="http://www.w3.org/2000/svg"
 width="224.000000pt" height="225.000000pt" viewBox="0 0 224.000000 225.000000"
 preserveAspectRatio="xMidYMid meet">

<g transform="translate(0.000000,225.000000) scale(0.100000,-0.100000)"
fill="#000000" stroke="none">
<path d="M813 1460 c-250 -22 -440 -87 -540 -186 -56 -56 -71 -96 -58 -160 9
-51 92 -130 177 -172 69 -33 107 -44 53 -15 -87 46 -145 122 -145 190 0 77 98
165 250 226 133 53 254 71 485 71 207 1 281 -6 399 -40 62 -18 70 -12 14 9
-171 64 -426 95 -635 77z"/>
<path d="M1935 1296 c58 -58 73 -97 60 -162 -15 -80 -154 -176 -325 -224 -233
-64 -602 -67 -805 -5 -110 33 -76 8 41 -30 306 -100 749 -82 997 41 130 64
187 129 187 214 0 49 -17 84 -62 127 -33 31 -126 93 -139 93 -4 0 16 -24 46
-54z"/>
<path d="M1915 1271 c-3 -5 -1 -12 5 -16 5 -3 10 1 10 9 0 18 -6 21 -15 7z"/>
<path d="M458 1140 l-46 -100 28 0 c19 0 29 6 33 20 3 14 14 20 32 20 18 0 29
-6 32 -20 4 -13 14 -20 30 -20 27 0 27 1 1 143 -10 52 -13 57 -37 57 -24 0
-31 -10 -73 -100z m72 0 c0 -29 -4 -40 -15 -40 -17 0 -19 18 -5 54 14 37 20
32 20 -14z"/>
<path d="M631 1163 c-10 -64 -9 -80 3 -99 20 -30 65 -39 109 -20 39 16 49 40
63 144 6 51 6 52 -19 52 -22 0 -26 -5 -32 -42 -15 -97 -18 -109 -34 -118 -35
-18 -44 3 -36 84 l7 76 -25 0 c-23 0 -25 -5 -36 -77z"/>
<path d="M840 1220 c0 -14 7 -20 21 -20 15 0 19 -5 15 -17 -2 -10 -8 -46 -11
-80 -7 -62 -7 -63 18 -63 22 0 26 6 31 40 3 22 9 58 12 80 4 30 10 40 24 40
15 0 30 18 30 36 0 2 -31 4 -70 4 -63 0 -70 -2 -70 -20z"/>
<path d="M1014 1206 c-29 -29 -34 -41 -34 -80 0 -57 25 -86 75 -86 72 0 115
44 115 118 0 83 -93 111 -156 48z m104 -40 c7 -61 -39 -114 -73 -86 -20 16
-19 70 1 98 24 34 68 27 72 -12z"/>
<path d="M1220 1228 c0 -7 -6 -52 -14 -100 l-13 -88 29 0 c25 0 28 3 28 35 0
19 4 35 8 35 4 0 14 -16 21 -35 10 -29 17 -35 42 -35 l29 0 -20 41 -21 41 25
23 c32 30 33 59 4 79 -27 20 -118 22 -118 4z m85 -42 c0 -20 -30 -45 -41 -34
-3 4 -3 19 0 33 8 31 41 31 41 1z"/>
<path d="M1396 1213 c-3 -16 -8 -53 -11 -83 -4 -30 -9 -63 -11 -72 -5 -16 2
-18 55 -18 54 0 61 2 61 20 0 16 -7 20 -31 20 -26 0 -30 3 -27 23 2 16 10 22
28 22 24 0 40 11 40 28 0 4 -13 7 -30 7 -23 0 -30 4 -30 20 0 16 7 20 35 20
28 0 35 4 35 20 0 18 -7 20 -54 20 -51 0 -55 -2 -60 -27z"/>
<path d="M1542 1151 c-16 -115 -16 -113 11 -109 19 3 23 12 32 66 l10 63 23
-65 c21 -59 27 -66 51 -66 27 0 28 2 39 89 15 115 16 111 -12 111 -22 0 -24
-5 -31 -67 l-7 -68 -25 68 c-23 60 -28 67 -52 67 -27 0 -28 -2 -39 -89z"/>
<path d="M1750 1220 c0 -14 7 -20 21 -20 18 0 21 -4 16 -29 -3 -15 -9 -51 -13
-80 -6 -50 -6 -51 19 -51 28 0 31 8 42 102 6 48 11 57 28 60 12 2 23 11 25 21
3 15 -5 17 -67 17 -64 0 -71 -2 -71 -20z"/>
</g>
</svg>
